<svg width="110" height="92" viewBox="0 0 110 92" fill="none" xmlns="http://www.w3.org/2000/svg">
<g filter="url(#filter0_d)">
<path d="M5 0.700195L54.6 59.1002L103.9 1.1002L5 0.700195Z" fill="#23A9E1"/>
<path d="M83.8001 17.3002C78.7001 17.3002 73.7001 17.4002 68.6001 17.4002C74.6001 10.5002 77.3001 11.2002 83.8001 17.3002Z" fill="white"/>
<path d="M42.5999 22.6997C51.4999 22.6997 60.3999 22.6997 69.2999 22.6997C67.2999 21.4997 62.5999 15.5997 59.9999 17.7997C59.7999 17.9997 52.4999 8.89973 47.6999 13.2997C43.4999 17.0997 41.5999 12.7997 36.7999 15.7997C31.4999 19.3997 39.9999 21.4997 42.5999 22.6997Z" fill="white"/>
<path d="M54.9 0H4V22.5L54.6 84L54.9 83.6L105.6 23.2V0H54.9ZM54.9 57.1L54.6 57.5L7.7 1.8H54.9H102.1L54.9 57.1Z" fill="#491213"/>
<path d="M54.6001 57.4998L54.9 57.0998L82.5 24.7998C75.6 25.6998 70.6 30.8998 63.9 29.7998C60.5 29.1998 60.4 27.2998 59.4 25.2998C58.7 23.7998 57.5 23.9998 55.9 23.3998C54.5 22.7998 53.6 21.6998 50.7001 22.2998C48.2001 22.8998 47.9001 26.7998 44.7001 26.5998C43 26.4998 42.9 24.0998 40.5 21.0998C34.2 13.4998 28.3 14.5998 24.3 21.5998L54.6001 57.4998Z" fill="#491213"/>
<path d="M50.5 70.9004L54.6 64.4004L58.6 70.9004L54.6 77.4004L50.5 70.9004Z" fill="#23A9E1"/>
<path d="M27.3 32.3004C27.8 32.9004 28.2001 33.6004 28.1001 34.4004C28.0001 35.0004 27.2 36.0004 27.8 36.2004C28.5 35.3004 29.3 34.3004 30 33.4004C29.4 33.2004 24.6 27.6004 24.6 26.9004C23.5 27.5004 22.5 28.1004 21.4 28.6004C21.6 29.3004 22.7 28.6004 23.3 28.6004C24.1 28.7004 24.7 29.2004 25.3 29.8004C23.6 31.2004 19.4 34.8004 18.9 34.9004C18.7 34.9004 17.8 34.3004 17.8 34.8004C17.8 35.1004 18.7 35.8004 18.8 36.0004C19.5 36.9004 20.3 37.8004 21 38.7004C21.6 38.4004 20.9001 38.0004 21.2001 37.5004C21.5001 37.1004 26.1 33.2004 27.3 32.3004Z" fill="white"/>
<path d="M22 25.3003C22.4 25.2003 22.6 25.7003 23 25.2003C22.2 24.2003 21.4 23.3003 20.6 22.3003C20.2 21.9003 19.8 21.4003 19.9 22.3003C20 22.9003 13.8 28.0003 13.4 28.1003C12.9 28.3003 12.6 27.7003 12.3 28.2003C13 29.1003 13.8 29.9003 14.5 30.8003C14.7 31.1003 15.0001 31.4003 15.2001 31.7003C15.5001 32.0003 15.4 31.0003 15.4 31.1003C15.3 30.6003 15.9 30.2003 16.3 29.9003C17.8 28.6003 21.6 25.3003 22 25.3003Z" fill="white"/>
<path d="M13.2 24.4C11.4 24.9 9.49998 24.2 8.99998 22.4C8.49998 20.6 9.59998 18.6 11.1 17.6C12.5 16.6 14.7 16.6 15.5 18.4C15.8 19.2 15.7 20.1 15.4 20.9C15.2 21.4 14.8 21.9 15.5 22.2C16.4 21.1 17.2 20 18.1 18.9C17 18.3 16.6 17.2 15.8 16.3C14.9 15.2 13.7 14.2 12.3 14C9.39998 13.6 6.69998 16.6 6.49998 19.2C6.39998 20.7 6.89998 22 7.69998 23.2C8.49998 24.2 9.59998 24.8 10.1 26C10.4 26.1 12.8 25 13.4 24.7C13.3 24.6 13.3 24.5 13.2 24.4C12.5 24.6 13.2 24.4 13.2 24.4Z" fill="white"/>
<path d="M52.5 60.7996C51.3 59.9996 48.5 56.0996 47.9 55.4996C47.8 55.3996 47.7001 55.1996 47.6001 55.0996C47.6001 55.0996 47.3 55.2996 47.4 55.2996C47.2 55.3996 47.5 55.8996 47.3 56.1996C46.5 57.3996 41.5 61.1996 41.3 61.3996C40.7 61.7996 40.1 61.1996 39.8 61.6996C40.5 62.5996 42.6 65.1996 42.8 65.2996C43.3 65.3996 42.9 64.4996 43 64.2996C43.1 63.8996 45.6 61.8996 46.5 61.0996C46.8 60.7996 47.2 61.4996 47.4 61.7996C47.7 62.2996 47.9001 62.7996 47.7001 63.3996C47.6001 63.7996 47 64.2996 47.4 64.5996C48 63.8996 49.8 61.7996 50 61.5996C50.3 61.2996 49.4 61.5996 49.5 61.4996C49.1 61.6996 48.8 61.6996 48.4 61.4996C48.3 61.3996 47.3 60.3996 47.4 60.2996C47.8 59.8996 48.4 59.2996 48.9 59.1996C49.8 58.9996 50.5001 60.6996 50.6001 61.2996C50.7001 61.8996 50.7 62.4996 50.5 63.0996C50.4 63.4996 50 63.7996 50.5 63.9996C51.2 62.9996 51.9001 62.0996 52.6001 61.0996C52.8001 60.8996 52.6 60.7996 52.5 60.7996C52.4 60.6996 52.7 60.7996 52.5 60.7996Z" fill="white"/>
<path d="M42.3 56.6001C44.5 54.7001 44.8 51.5001 43.1 49.3001C41.2 46.8001 37.7 46.2001 35.3 48.2001C33.1 50.1001 32.8 53.2001 34.5 55.5001C36.5 58.2001 39.7 58.5001 42.3 56.6001C43.5 55.7001 42.2 56.7001 42.3 56.6001ZM41.8 51.9001C41.2 53.4001 39.6 55.0001 38.1 55.6001C36.3 56.3001 35 54.8001 35.7 53.0001C36.4 51.5001 37.9 49.9001 39.4 49.3001C41.3 48.6001 42.5 50.2001 41.8 51.9001C41.4 52.8001 41.9 51.7001 41.8 51.9001Z" fill="white"/>
<path d="M35.9 42.0004C36.4 42.1004 36.8 42.5004 37.2 42.0004C36.5 41.1004 35.7 40.2004 35 39.4004C34.4 39.7004 35 39.9004 34.8 40.4004C34.6 40.8004 32.2 41.2004 31.6 41.3004C31.8 40.7004 32.5 38.7004 32.8 38.5004C33.3 38.1004 33.7 38.9004 34.1 38.4004C33.2 37.3004 32.3 36.2004 31.4 35.1004C31.1 34.7004 30.8 34.1004 30.4 34.4004C30.4 34.4004 30.4 35.9004 30.3 36.1004C30.2 36.3004 29.4 39.7004 28.4 40.6004C27.9 41.0004 26.2 42.5004 25.7 42.7004C25.2 42.9004 24.9 42.1004 24.5 42.7004C25.3 43.7004 26.2 44.7004 27 45.7004C27.1 45.8004 27.6 46.6004 27.8 46.6004C28.3 46.7004 27.9 45.7004 27.9 45.5004C28.1 45.1004 30.4 42.8004 31.4 42.6004C32.6 42.4004 34.4 41.9004 35.9 42.0004C36.2 42.1004 35.5 42.0004 35.9 42.0004Z" fill="white"/>
<path d="M29.6 22.9C25.6 22.7 27.2 18.9 30 18.1C32.6 17.3 38.1 19.8 39.8 21.5C37 22.4 33.4 22.2 30.4 22.4C30.2 19.2 29.4 20.3 29.6 22.9Z" fill="#DC6243"/>
<path d="M30.6001 27.6996C28.6001 26.0996 29.2001 22.3996 32.4001 23.5996C36.4001 25.6996 31.5001 26.7996 30.6001 27.6996Z" fill="#DC6243"/>
<path d="M39.1 35.4002C30.5 35.3002 36.3 22.1002 39.2 22.9002C42.6 24.0002 42.2 35.5002 39.1 35.4002Z" fill="#DC6243"/>
<path d="M45.2001 31.1003C44.4001 33.6003 42.8001 34.1003 43.0001 31.0003C43.2001 27.5003 45.5001 28.3003 47.9001 27.0003C49.9001 25.9003 51.0001 21.8003 54.5001 24.2003C56.1001 25.3003 57.9001 24.4003 58.4001 26.0003C58.4001 25.9003 53.9001 36.3003 56.4001 36.3003C51.4001 36.3003 53.6001 30.4003 55.5001 26.4003C53.7001 27.3003 50.7001 33.1003 53.1001 34.0003C51.8001 35.7003 47.9001 37.9003 45.9001 36.3003C44.4001 35.2003 45.2001 33.1003 45.2001 31.1003Z" fill="#DC6243"/>
<path d="M49.3 40.6998C45.8 41.6998 41.2 39.4998 46.8 38.3998C50.3 37.6998 54 39.0998 49.3 40.6998C49.4 40.6998 49.2 40.6998 49.3 40.6998Z" fill="#DC6243"/>
<path d="M53.7 40.6003C53 38.9003 54.3 37.0003 56.4 38.4003C58.2 39.6003 55.5 41.5003 53.7 40.6003Z" fill="#DC6243"/>
<path d="M50.7 45.2C48.3 44.5 40.2 44.6 45.5 42.4C47.2 41.8 55.7 42.6 50.7 45.2Z" fill="#DC6243"/>
<path d="M53.9 44.8997C53.9 43.8997 53.4 42.1997 55.3 42.9997C57.5 43.7997 53.9 45.5997 53.9 44.8997C53.9 44.8997 53.9 44.6997 53.9 44.8997Z" fill="#DC6243"/>
<path d="M61.2001 48.4998C59.8001 47.2998 58.3001 47.1998 57.0001 48.4998C55.2001 45.1998 48.7001 46.2998 45.6001 45.7998C47.2001 49.8998 60.4001 50.6998 61.2001 48.4998Z" fill="#DC6243"/>
<path d="M59.2999 50.9998C56.0999 50.8998 52.6 50.3998 49.7 51.0998C51.6 51.5998 56.0999 52.8998 51.8999 53.9998C53.3999 56.1998 55.8999 55.9998 57.4999 54.0998C56.7999 53.7998 56.4999 53.3998 55.8999 52.9998C57.4999 52.6998 59.0999 51.7998 59.2999 50.9998Z" fill="#DC6243"/>
<path d="M62.9 47.0996C57.6 43.9996 58.9 41.6996 63.3 39.4996C65.6 38.3996 70.6 34.2996 72.7 35.5996C69.4 39.4996 66.1 43.2996 62.9 47.0996Z" fill="#DC6243"/>
<path d="M59.0999 39.8002C54.5999 35.2002 65.7999 35.6002 67.5999 34.0002C68.8999 34.4002 78.3999 25.7002 80.6999 26.3002C78.9999 28.2002 75.4999 34.4002 72.8999 34.4002C70.8999 34.4002 68.8999 34.1002 67.3999 35.5002C65.1999 37.6002 61.4999 38.6002 59.0999 39.8002Z" fill="#F49774"/>
<path d="M60.6 34.1996C58.1 35.4996 55.8 30.2996 60.1 30.7996C62.9 31.0996 65.8 30.5996 68.4 30.9996C66.4 33.2996 63.7 34.5996 60.6 34.1996Z" fill="#F4B1A4"/>
<path d="M73.2001 52.4996C73.4001 53.0996 73.5001 53.7996 73.4001 54.4996C73.3001 55.3996 72.4001 57.3996 71.2001 56.7996C70.0001 56.1996 69.0001 55.0996 68.0001 54.1996C68.8001 53.2996 69.5001 52.4996 70.9001 52.8996C71.3001 52.9996 71.6001 52.8996 71.2001 52.5996C70.8001 52.3996 68.1001 50.5996 67.9001 50.7996C67.6001 51.0996 68.4001 51.6996 68.1001 52.2996C67.9001 52.6996 67.5001 53.0996 67.2001 53.4996C66.5001 52.8996 65.3001 52.1996 66.1001 51.1996C66.6001 50.4996 67.4001 49.9996 68.2001 49.8996C68.8001 49.7996 70.0001 50.2996 70.2001 49.6996C69.1001 49.1996 68.0001 48.6996 66.9001 48.0996C67.1001 48.8996 63.6001 52.5996 62.8001 53.5996C62.7001 53.6996 62.1001 54.1996 62.1001 54.3996C62.1001 54.7996 62.7001 54.4996 62.8001 54.4996C63.3001 54.2996 69.6001 59.5996 69.8001 59.9996C69.9001 60.2996 69.6001 60.5996 69.8001 60.6996C69.8001 60.6996 70.0001 60.8996 70.1001 60.8996C70.5001 60.3996 74.6001 54.8996 75.5001 54.6996C74.7001 53.4996 73.9001 52.2996 73.1001 50.9996C72.5001 51.2996 73.1001 51.9996 73.2001 52.4996Z" fill="white"/>
<path d="M66.9999 59.2004C64.8999 57.9004 61.3999 60.5004 60.8999 60.7004C59.8999 61.2004 59.1 60.2004 59.6 59.2004C60.1 58.4004 60.9999 58.0004 61.8999 57.9004C62.1999 57.9004 63.1999 58.1004 63.3999 57.9004C63.4999 57.7004 63.5999 57.7004 63.3999 57.6004C62.4999 57.0004 61.6999 56.4004 60.7999 55.9004C60.5999 57.0004 59.4 57.6004 58.7 58.3004C57.9 59.2004 57.2 60.2004 57.2 61.5004C57.2 62.6004 57.8999 63.6004 58.8999 64.2004C59.9999 64.8004 61.2 64.3004 62.2 63.7004C62.8 63.3004 63.5 62.8004 64.1 62.5004C65.1 62.0004 66.4 62.4004 66.1 63.8004C65.8 64.9004 64.7 65.9004 63.7 66.1004C63.1 66.3004 62.3999 66.2004 61.7999 66.0004C61.3999 65.9004 60.8 65.3004 60.6 65.9004C61.8 66.7004 62.9 67.6004 64.1 68.4004C64.2 67.6004 64.6 67.3004 65.2 66.8004C65.9 66.2004 66.6 65.5004 67.2 64.7004C68.4 63.0004 68.7999 60.6004 66.9999 59.2004Z" fill="white"/>
<path d="M67 59.1999C68 59.7999 66.4 58.6999 67 59.1999V59.1999Z" fill="white"/>
<path d="M103.7 19.6003C103 20.3003 95.3001 17.3003 94.7001 16.8003C94.4001 16.7003 94.4001 15.5003 94.0001 16.0003C93.6001 16.5003 93.2001 17.0003 92.8001 17.5003C92.4001 18.0003 92.0001 18.5003 91.5001 19.0003C91.2001 19.3003 91.0001 19.5003 91.5001 19.7003C92.3001 19.3003 96.9001 27.0003 96.5001 28.2003C95.8001 28.6003 89.6001 23.1003 89.4001 22.8003C89.3001 22.7003 89.7001 21.8003 89.2001 21.9003C89.0001 21.9003 88.5001 22.8003 88.3001 23.0003C88.0001 23.4003 87.7001 23.7003 87.4001 24.1003C87.7001 24.6003 87.9001 24.1003 88.4001 24.1003C88.8001 24.2003 90.2001 25.4003 90.6001 25.8003C89.9001 25.8003 87.9001 25.9003 87.7001 25.9003C86.8001 26.0003 87.3001 25.2003 86.7001 25.0003C85.9001 25.9003 85.2001 26.8003 84.4001 27.8003C84.0001 28.3003 83.5001 28.9003 83.1001 29.4003C83.0001 29.5003 83.1001 29.4003 83.1001 29.5003C83.4001 29.8003 83.2001 29.7003 83.7001 29.5003C84.2001 29.3003 90.3001 34.4003 90.5001 34.7003C90.9001 35.1003 90.3001 35.7003 90.9001 35.9003C91.5001 35.2003 92.1001 34.4003 92.7001 33.7003C92.8001 33.6003 92.8001 33.6003 92.7001 33.5003C92.3001 33.1003 92.2001 33.7003 91.7001 33.7003C91.2001 33.6003 87.3001 30.3003 85.8001 29.1003C87.6001 29.0003 93.1001 28.8003 94.0001 28.8003C94.3001 28.8003 95.1001 29.7003 95.1001 30.0003C95.0001 30.4003 94.6001 30.6003 95.2001 30.8003C95.7001 30.2003 96.2001 29.7003 96.7001 29.1003L96.9001 28.8003C97.0001 28.7003 97.0001 28.7003 97.1001 28.5003L97.3001 28.3003C97.7001 27.8003 99.1001 26.3003 98.9001 26.2003C98.4001 25.8003 98.2001 26.7003 97.6001 26.1003C97.3001 25.9003 96.4001 24.3003 96.2001 23.9003C95.9001 23.5003 96.8001 23.0003 97.2001 22.8003C98.0001 22.3003 100.4 21.6003 100.7 23.1003C100.7 23.4003 100.4 23.6003 100.6 23.8003C100.6 23.8003 100.8 24.0003 100.9 24.0003C101.1 23.8003 103.3 21.2003 104.2 20.0003C103.9 19.8003 103.8 19.7003 103.7 19.6003ZM96.3001 21.8003C96.4001 21.8003 96.5001 21.7003 96.3001 21.8003C96.0001 22.0003 95.6001 22.3003 95.3001 22.6003C94.8001 21.7003 94.3001 20.8003 93.7001 19.9003C94.9001 20.4003 96.1001 20.9003 97.2001 21.4003C97.0001 21.5003 96.7001 21.6003 96.3001 21.8003Z" fill="white"/>
<path d="M86.6 33.0004C84.2 31.0004 81 31.6004 79 33.8004C77.1 36.1004 77.3 39.5004 79.6 41.4004C81.9 43.3004 85.3 42.8004 87.2 40.6004C89.1 38.3004 89 34.9004 86.6 33.0004ZM86.3 39.6004C86.3 39.6004 86.3 39.7004 86.3 39.6004C85 40.9004 82.9 39.7004 81.8 38.9004C80.7 38.1004 78.7 36.3004 79.9 34.8004C81 33.5004 83 34.6004 84.1 35.3004C85.3 36.1004 87.5 37.9004 86.4 39.5004C86.5 39.4004 86.5 39.4004 86.3 39.6004Z" fill="white"/>
<path d="M86.6 32.9995C87.8 33.9995 86.3 32.7995 86.6 32.9995V32.9995Z" fill="white"/>
<path d="M86.3 39.6996C86.3 39.5996 86.3 39.5996 86.3 39.6996C86.4 39.5996 86.4 39.5996 86.4 39.5996C86.3 39.5996 86.3 39.6996 86.3 39.6996Z" fill="white"/>
<path d="M80 42.1002C80.1 42.2002 80.3 42.4002 80 42.1002C77.1 39.9002 73.7 40.5002 71.5 43.2002C70.5 44.4002 69.5 45.6002 68.5 46.8002C68.9 47.3002 69.3 46.7002 69.8 47.0002C70.2 47.3002 76 52.1002 76.1 52.4002C76.3 52.9002 75.8 52.9002 76.2 53.3002C76.4 53.4002 80.7 48.1002 81.1 47.1002C82 45.3002 81.4 43.4002 80 42.1002ZM78.7 48.9002C78.5 49.2002 78.7 49.0002 78 49.6002C77.7 49.9002 71.6 44.9002 71.8 44.7002C72.6 43.8002 74.4 43.1002 75.4 43.4002C77.6 43.9002 80.6 46.6002 78.7 48.9002Z" fill="white"/>
</g>
<defs>
<filter id="filter0_d" x="0" y="0" width="109.6" height="92" filterUnits="userSpaceOnUse" color-interpolation-filters="sRGB">
<feFlood flood-opacity="0" result="BackgroundImageFix"/>
<feColorMatrix in="SourceAlpha" type="matrix" values="0 0 0 0 0 0 0 0 0 0 0 0 0 0 0 0 0 0 127 0"/>
<feOffset dy="4"/>
<feGaussianBlur stdDeviation="2"/>
<feColorMatrix type="matrix" values="0 0 0 0 0 0 0 0 0 0 0 0 0 0 0 0 0 0 0.25 0"/>
<feBlend mode="normal" in2="BackgroundImageFix" result="effect1_dropShadow"/>
<feBlend mode="normal" in="SourceGraphic" in2="effect1_dropShadow" result="shape"/>
</filter>
</defs>
</svg>
