<svg width="33" height="21" viewBox="0 0 33 21" fill="none" xmlns="http://www.w3.org/2000/svg">
<path d="M29.7148 0.273438H3.71484C2.01484 0.273438 0.714844 1.57344 0.714844 3.27344V17.2734C0.714844 18.9734 2.01484 20.2734 3.71484 20.2734H29.7148C31.4148 20.2734 32.7148 18.9734 32.7148 17.2734V3.27344C32.7148 1.57344 31.4148 0.273438 29.7148 0.273438ZM15.1148 16.1734C14.6148 16.2734 14.0148 16.2734 13.4148 16.2734C12.7148 16.2734 12.0148 16.1734 11.4148 15.9734C10.8148 15.7734 10.2148 15.3734 9.81484 14.9734C9.41484 14.5734 9.01484 13.8734 8.71484 13.0734C8.41484 12.2734 8.31484 11.3734 8.31484 10.2734C8.31484 9.17344 8.51484 8.17344 8.81484 7.37344C9.11484 6.57344 9.51484 5.97344 10.0148 5.47344C10.5148 4.97344 11.1148 4.67344 11.7148 4.47344C12.2148 4.37344 12.9148 4.27344 13.5148 4.27344C14.2148 4.27344 14.7148 4.27344 15.2148 4.37344C15.7148 4.47344 16.0148 4.57344 16.3148 4.67344L15.9148 6.57344C15.6148 6.47344 15.3148 6.37344 15.0148 6.27344C14.6148 6.27344 14.2148 6.27344 13.7148 6.27344C12.8148 6.27344 12.1148 6.57344 11.5148 7.27344C10.9148 7.97344 10.7148 8.97344 10.7148 10.2734C10.7148 10.8734 10.8148 11.3734 10.9148 11.8734C11.0148 12.3734 11.2148 12.7734 11.5148 13.1734C11.8148 13.4734 12.1148 13.7734 12.5148 13.9734C12.9148 14.1734 13.4148 14.2734 13.9148 14.2734C14.4148 14.2734 14.8148 14.2734 15.2148 14.1734C15.5148 14.0734 15.8148 13.9734 16.1148 13.7734L16.6148 15.5734C16.1148 15.8734 15.6148 15.9734 15.1148 16.1734ZM23.8148 16.1734C23.3148 16.2734 22.7148 16.2734 22.1148 16.2734C21.4148 16.2734 20.7148 16.1734 20.1148 15.9734C19.5148 15.7734 18.9148 15.3734 18.5148 14.9734C18.0148 14.4734 17.6148 13.8734 17.4148 13.0734C17.1148 12.2734 17.0148 11.3734 17.0148 10.2734C17.0148 9.17344 17.2148 8.17344 17.5148 7.37344C17.8148 6.57344 18.2148 5.97344 18.7148 5.47344C19.2148 4.97344 19.8148 4.67344 20.4148 4.47344C20.9148 4.37344 21.6148 4.27344 22.2148 4.27344C22.9148 4.27344 23.4148 4.27344 23.9148 4.37344C24.4148 4.47344 24.7148 4.57344 25.0148 4.67344L24.6148 6.57344C24.3148 6.47344 24.0148 6.37344 23.7148 6.27344C23.3148 6.27344 22.9148 6.27344 22.4148 6.27344C21.5148 6.27344 20.8148 6.57344 20.2148 7.27344C19.6148 7.97344 19.4148 8.97344 19.4148 10.2734C19.4148 10.8734 19.5148 11.3734 19.6148 11.8734C19.7148 12.3734 19.9148 12.7734 20.2148 13.1734C20.5148 13.4734 20.8148 13.7734 21.2148 13.9734C21.6148 14.1734 22.1148 14.2734 22.6148 14.2734C23.1148 14.2734 23.5148 14.2734 23.9148 14.1734C24.2148 14.0734 24.5148 13.9734 24.8148 13.7734L25.3148 15.5734C24.8148 15.8734 24.3148 15.9734 23.8148 16.1734Z" fill="white"/>
</svg>
